<svg width="669" height="415" viewBox="0 0 669 415" fill="none" xmlns="http://www.w3.org/2000/svg">
<path opacity="0.1" fill-rule="evenodd" clip-rule="evenodd" d="M110.267 120.445C121.29 109.652 139.162 109.652 150.185 120.445L229.681 198.278L309.176 120.445C320.199 109.652 338.071 109.652 349.094 120.445C360.117 131.237 360.117 148.735 349.094 159.528L269.598 237.362L349.094 315.195C360.117 325.988 360.117 343.486 349.094 354.278C338.071 365.071 320.199 365.071 309.176 354.278L229.681 276.445L150.185 354.278C139.162 365.071 121.29 365.071 110.267 354.278C99.2443 343.486 99.2443 325.988 110.267 315.195L189.763 237.362L110.267 159.528C99.2443 148.735 99.2443 131.237 110.267 120.445Z" fill="black"/>
<path opacity="0.1" fill-rule="evenodd" clip-rule="evenodd" d="M439.127 107.349C399.485 107.349 367.349 138.814 367.349 177.627C367.349 216.44 399.485 247.905 439.127 247.905C478.769 247.905 510.905 216.44 510.905 177.627C510.905 138.814 478.769 107.349 439.127 107.349ZM310.818 177.627C310.818 108.245 368.264 52 439.127 52C509.99 52 567.436 108.245 567.436 177.627C567.436 247.009 509.99 303.254 439.127 303.254C368.264 303.254 310.818 247.009 310.818 177.627Z" fill="black"/>
</svg>
